# xmcd
#
# Track frame offsets:
#	150
#	17677
#	37322
#	59555
#	87977
#	105617
#	121725
#	141920
#	164272
#	181207
#	196375
#	216442
#	233662
#	256337
#	279637
#	302342
#	320305
#
# Disc length: 4554 seconds
#
# Revision: 2
# Processed by: cddbd v1.5.2PL0 Copyright (c) Steve Scherf et al.
# Submitted via: audiograbber 1.82.02
#
DISCID=f011c811
DTITLE=Various Artist - A Tribute to Curtis Mayfiekd
DYEAR=1994
DGENRE=Rock
TTITLE0=Gladys Knight - Choice of Colors
TTITLE1=Steve Winwood - It's All Right
TTITLE2=Repercussions and Curtis Mayfield - Let's Do It Again
TTITLE3=Lenny Kravitz - Billy Jack
TTITLE4=Whitney Houston - Look Into Your Heart
TTITLE5=Bruce Springsteen - Gypsy Woman
TTITLE6=Eric Clapton - You Must Believe Me
TTITLE7=The Isley Brothers f. Ronald Isley - I'm So Proud
TTITLE8=Branford Marsalis and the Impressions - Fool for You
TTITLE9=Tevin Campbell - Keep on Pushin'
TTITLE10=Aretha Franklin - The Makings of You
TTITLE11=B.B. King - Woman's Got Soul
TTITLE12=Rod Stewart - People Get Ready
TTITLE13=Narada Michael Walden - (Don't Worry) If There's a Hell Below, We're A
TTITLE13=ll Going to Go
TTITLE14=Phil Collins - I've Been Trying
TTITLE15=Stevie Wonder - I'm the One Who Loves You
TTITLE16=Elton John and Sounds of Blackness - Amen
EXTD=
EXTT0=
EXTT1=
EXTT2=
EXTT3=
EXTT4=
EXTT5=
EXTT6=
EXTT7=
EXTT8=
EXTT9=
EXTT10=
EXTT11=
EXTT12=
EXTT13=
EXTT14=
EXTT15=
EXTT16=
PLAYORDER=
